PathFileType	4	(X/Y/Z)	pose_F01_0-84.trc
DataRate	CameraRate	NumFrames	NumMarkers	Units	OrigDataRate	OrigDataStartFrame	OrigNumFrames
30	30	9	21	m	30	60	84
Frame#	Time	CHip			RHip			RKnee			RAnkle			RBigToe			RSmallToe			RHeel			LHip			LKnee			LAnkle			LBigToe			LSmallToe			LHeel			Neck			Nose			RShoulder			RElbow			RWrist			LShoulder			LElbow			LWrist			
		X1	Y1	Z1	X2	Y2	Z2	X3	Y3	Z3	X4	Y4	Z4	X5	Y5	Z5	X6	Y6	Z6	X7	Y7	Z7	X8	Y8	Z8	X9	Y9	Z9	X10	Y10	Z10	X11	Y11	Z11	X12	Y12	Z12	X13	Y13	Z13	X14	Y14	Z14	X15	Y15	Z15	X16	Y16	Z16	X17	Y17	Z17	X18	Y18	Z18	X19	Y19	Z19	X20	Y20	Z20	X21	Y21	Z21	
60	2.0	-0.20492297034063248	1.8523948233109795	-0.4040975947346521	-0.2174178070571128	1.8497857669390785	-0.34326605424741935	-0.23328210314829703	1.7457966798943108	-0.39074754828573044													-0.19338485186835408	1.8565618293903225	-0.4629189031881314	-0.20661814892216745	1.7344702112595307	-0.49043115510815594	-0.18657370215578106	1.6306857149543672	-0.46187411815327234	-0.20077887084142357	1.5980121059458303	-0.5151330840482246	-0.18602972590200817	1.6111189675493631	-0.5282109614997634	-0.1889201538236822	1.6132673892790286	-0.4572893010830141	-0.21300376688144124	1.993881719720988	-0.4169617284567716	-0.2268929785450567	2.050119433436443	-0.4417858734562721	-0.2300273757268792	1.9886414496370584	-0.3390269961672258	-0.8582043123360801	1.9299928107999977	0.32175289688940123	-0.2898613282021932	1.9619885619116015	-0.4293394346190205	-0.19328633090542569	1.9994534271707178	-0.5009244121509387	-1.5437197980450312	1.8802070247833977	0.864575538764255	-1.346776082381152	1.8657850775370635	0.5047012740366623
61	2.033333333333333	-0.20349255046788522	1.8465476819328568	-0.4054384470121969	-0.21504933729317632	1.8417179393734806	-0.3496174731309337	-0.23328210314829703	1.7457966798943108	-0.39074754828573044													-0.1929131689500324	1.8507206423509823	-0.46748014043803415	-0.20732359191913227	1.7271737337513295	-0.49488222697801315	-0.18657370215578106	1.6306857149543672	-0.46187411815327234	-0.19877376911185726	1.5974671583855937	-0.5175171290446552	-0.18903297218243717	1.6114153927081918	-0.5291454471854171	-0.1889201538236822	1.6132673892790286	-0.4572893010830141	-0.21342220780112203	1.989422951609534	-0.42523293597973616	-0.23123520529257885	2.0383561082042045	-0.4606540860630678	-0.2305954333309502	1.9841767108411947	-0.34736374713705775	-0.2657914356765403	1.9438166554556082	-0.3646697983960815	-0.28918294357617713	1.9434944959577038	-0.4441719769613593	-0.19434998081298976	1.9955749743131597	-0.5038711166675852	-0.1907404132116809	1.9531160658978575	-0.5924781149464465	-1.340661252182511	1.853275460478454	0.5008994679478965
62	2.066666666666667	-0.2040507326168864	1.846747130815924	-0.4054257956593181	-0.21755228463857076	1.8434871530538346	-0.3478393535073795	-0.23328210314829703	1.7457966798943108	-0.39074754828573044													-0.19315409226690117	1.8500371105486668	-0.4587202774276625	-0.2091589358428976	1.7265800615894795	-0.5015085450315054	-0.18657370215578106	1.6306857149543672	-0.46187411815327234	-0.1987459026127744	1.597568471743512	-0.5175465361167214	-0.18692469394538472	1.6109860592657854	-0.5314775627513346	-0.1889201538236822	1.6132673892790286	-0.4572893010830141	-0.21649322335340607	1.987181485655264	-0.4263388196222282	-0.23267084705772684	2.03242872715478	-0.46337345572617067	-0.2337196931906427	1.983094279404072	-0.34877067976934084	-0.2590361825339533	1.947161032607666	-0.36036360275264073	-0.2973541067088758	1.9287796517090188	-0.4160652565374608	-0.19445463694992818	1.9931736989160247	-0.5034915580508229	-0.19622130511120675	1.9595851134159932	-0.5854147479268502	-1.3580109843342045	1.8500793490477367	0.5361450493983672
63	2.1	-0.20702515956111203	1.846457305013322	-0.40654117830108827	-0.2197057482545978	1.8451255607094	-0.3459272359979487	-0.23328210314829703	1.7457966798943108	-0.39074754828573044													-0.19518173574278605	1.8503861004062354	-0.46528139660545925	-0.2075820231741545	1.7233868543480984	-0.49419106655123635	-0.18657370215578106	1.6306857149543672	-0.46187411815327234	-0.19956026346404349	1.5972551731733595	-0.5207459063438377	-0.1869238304756716	1.6110553886707173	-0.5315741203546521	-0.1889201538236822	1.6132673892790286	-0.4572893010830141	-0.21764734395859353	1.9885686234929452	-0.4299738812809164	-0.23469551911770342	2.0313148446260616	-0.46158851988920374	-2.1634820350779065	1.907535984777112	1.8964334618440382	-0.2654496329023332	1.9466708893118019	-0.3634142906557888	-0.30349362169163174	1.9277318666510619	-0.40982484195141083	-0.1964918569278324	1.9942078901874363	-0.5017475523182935	-0.1966265246025541	1.9593537569934378	-0.5770453614830918	-0.20549927147895813	1.9359670401837135	-0.6602679859797362
64	2.1333333333333333	-0.21294794082739882	1.8506084062177837	-0.40063483028499575	-0.22355700146587437	1.8462950375789284	-0.3418444463012032	-0.23328210314829703	1.7457966798943108	-0.39074754828573044													-0.1992807813359917	1.854682595645362	-0.4701377089818531	-0.2083786690519482	1.7272994454954913	-0.4892360269205858	-0.18657370215578106	1.6306857149543672	-0.46187411815327234	-0.19858919871764907	1.5971332310241462	-0.5175084621800471	-0.1860804771122584	1.6116311636459688	-0.5280901456811405	-0.1889201538236822	1.6132673892790286	-0.4572893010830141	-0.22053449317531953	1.9949929921016685	-0.43242887862227203	-0.23475092322246083	2.041973804638677	-0.46464658058167063	-0.2357842486613964	1.9918748833775057	-0.3494109219634705	-0.27052519422877963	1.9501243830020505	-0.371742776747274	-0.3107144992280628	1.9391781761027849	-0.42573626212978605	-0.19946766155814227	2.000066418714084	-0.5039086530259855	-0.19963539320731646	1.9612407929355788	-0.578325106100677	-0.2060332766275498	1.9333849516111719	-0.6518200863047505
65	2.1666666666666665	-0.21488686638946317	1.8602455161042004	-0.39988081767829403	-0.22555332225277933	1.8570792184349898	-0.3414305636882392	-0.23328210314829703	1.7457966798943108	-0.39074754828573044													-0.20030340532765095	1.8638341882895875	-0.46615220237799193	-0.20944414344421045	1.7307323898422267	-0.4839335049457639	-0.18657370215578106	1.6306857149543672	-0.46187411815327234	-0.2007132039053291	1.5973703271298507	-0.5151271004752076	-0.18885804035531967	1.6104419986681813	-0.5290097365734326	-0.1889201538236822	1.6132673892790286	-0.4572893010830141	-0.22154222197056714	2.005319633619119	-0.43797849280999435	-0.23730611294988377	2.0490670870448695	-0.465807134196857	-0.2385445000341827	1.9999997922942778	-0.3522101426318802	-0.2694085572395921	1.9560043454501679	-0.377789108818111	-0.30985458908703956	1.9423842760112089	-0.43996696053276896	-0.20133320826375897	2.010309465863708	-0.5124257993635858	-0.19717214255515558	1.9695963577793	-0.5710379871727214	-0.20235940304231323	1.9346129932089102	-0.6477654306019783
66	2.2	-0.21495048866272692	1.863779337640161	-0.40053423540016747	-0.22371498240648216	1.8620991578359376	-0.3444180120316725	-0.23328210314829703	1.7457966798943108	-0.39074754828573044													-0.2003702615141666	1.8671752146835978	-0.46669622974501396	-0.21002042167529308	1.7390578529858864	-0.48397763964786905	-0.18657370215578106	1.6306857149543672	-0.46187411815327234	-0.19860132749372236	1.5974366401274984	-0.5173060264948655	-0.1859270191124069	1.6108229884797771	-0.5280584179542435	-0.1889201538236822	1.6132673892790286	-0.4572893010830141	-0.22240470850321586	2.0091882032061124	-0.4418433559210351	-0.2422594700357767	2.052147887750654	-0.4820651711956711	-0.24326560804585348	2.0038038063161214	-0.3597455351432437	-0.2673641438826496	1.9546880865765899	-0.379352315863121	-0.30573096517895787	1.9433190678070857	-0.43606632135702217	-0.20290560219725817	2.0154779132878624	-0.5276325154763744	-0.19786012179288462	1.9723088471341095	-0.5741720347368576	-0.19880630285683315	1.9354849406923487	-0.6248113868987774
67	2.2333333333333334	-0.21439315513151647	1.865866730884463	-0.4008472760518357	-0.22327418090550905	1.8628791619367548	-0.34453869206012044	-0.23328210314829703	1.7457966798943108	-0.39074754828573044													-0.20089966908447	1.8681459515547238	-0.4700479574410656	-0.20698971311927541	1.74119880640323	-0.4832074604405455	-0.18657370215578106	1.6306857149543672	-0.46187411815327234	-0.197788683105799	1.597762793662932	-0.5141137985608321	-0.18886471932594842	1.6107376152269532	-0.5290556503869479	-0.1889201538236822	1.6132673892790286	-0.4572893010830141	-0.22514649139374102	2.0083790599371802	-0.45055826133822086	-0.24323581876270936	2.052317383214309	-0.4931857022606594	-0.2444554950735983	2.0039659397320273	-0.37104566671174394	-0.2735804360424472	1.938603582299958	-0.38011888918102277	-0.28259046103757	1.9584862391633273	-0.4172904817185578	-0.2037335269148605	2.0132221727199777	-0.5302585549543843	-0.1996273984530138	1.9697670888927339	-0.5797827900381948	-0.20744752180430998	1.924369624926108	-0.6139537611035378
68	2.2666666666666666	-0.21109101733584124	1.8662222851682853	-0.40842426376284274	-0.22086065589848056	1.8630223184986543	-0.3466476909702664	-0.23328210314829703	1.7457966798943108	-0.39074754828573044													-0.20113554020311467	1.867045976483836	-0.473059270989382	-0.20655490652794264	1.7435956422115557	-0.48383583112956036	-0.18657370215578106	1.6306857149543672	-0.46187411815327234	-0.1987316520702882	1.597845584278696	-0.5172865817395824	-0.18687554156950678	1.610720028825031	-0.5312524321465613	-0.1889201538236822	1.6132673892790286	-0.4572893010830141	-0.22708193209647634	2.001364006985223	-0.463182826737503	-0.24698887236217343	2.042840724245287	-0.5105640524331918	-0.2464827846894918	1.9978360748340693	-0.37562224654128473	-0.2685024922425155	1.9335779129496375	-0.3793773792084227	-1.8493941413041757	1.8898072574849367	1.3498818564482082	-0.20518597629777846	2.007007182633506	-0.54295353716954	-0.19999261825539827	1.9490382278146208	-0.5873744818739285	-0.211395646580744	1.8925793436044225	-0.6128005439350943
